<svg width="136" height="16" fill="none" xmlns="http://www.w3.org/2000/svg"><path d="M6.13 11.2H4.26l-.76 3.23H1.25l.76-3.23H.46l.46-2.04h1.57l.53-2.23H1.5l.46-2.04H3.5l.74-3.02h2.22L5.75 4.9h1.87l.73-3.02h2.23L9.86 4.9h1.52l-.53 2.04H9.38l-.52 2.23h1.45l-.5 2.04H8.36l-.75 3.23H5.37l.76-3.23ZM4.74 9.16h1.87l.52-2.23H5.27l-.53 2.23Zm13.32.27.38 2.5h.1l.43-2.52L21.78.8h3.02l-5.46 14.8H17.3L11.79.8h3.33l2.94 8.63ZM26.16.8h2.88v14.7h-2.88V.8ZM38.2 11.55c0-.45-.17-.81-.5-1.09a4.93 4.93 0 0 0-1.25-.76c-.49-.23-1.03-.47-1.61-.71a9.57 9.57 0 0 1-1.62-.9c-.5-.37-.9-.81-1.24-1.35a3.88 3.88 0 0 1-.48-2.03c0-.72.12-1.33.35-1.85.24-.53.58-.97 1.01-1.32.45-.35.97-.61 1.58-.78A7.5 7.5 0 0 1 36.45.5c.86 0 1.66.07 2.42.23.75.14 1.38.35 1.87.63l-.9 2.41A7.56 7.56 0 0 0 36.45 3a2.6 2.6 0 0 0-1.56.4c-.35.27-.53.63-.53 1.07 0 .42.16.78.49 1.06.33.27.75.53 1.24.77.5.24 1.04.49 1.61.74.6.25 1.13.56 1.62.92.5.35.92.8 1.24 1.32.33.52.5 1.17.5 1.96a4.8 4.8 0 0 1-.4 2.03 3.72 3.72 0 0 1-1.09 1.41 4.5 4.5 0 0 1-1.7.84c-.66.18-1.39.27-2.18.27-1.05 0-1.98-.1-2.78-.29-.8-.2-1.38-.4-1.76-.59l.92-2.46a6.13 6.13 0 0 0 1.43.55 6.77 6.77 0 0 0 2.04.3c.85 0 1.5-.15 1.95-.43.46-.29.7-.73.7-1.32ZM43.28.8h2.88v14.7h-2.88V.8Zm16.13 2.56h-4.28V15.5h-2.88V3.36h-4.3V.8H59.4v2.56Zm7.85 8.2c0-.46-.17-.82-.5-1.1a4.93 4.93 0 0 0-1.25-.76c-.49-.23-1.03-.47-1.61-.71a9.57 9.57 0 0 1-1.62-.9c-.5-.37-.9-.81-1.24-1.35a3.88 3.88 0 0 1-.48-2.03c0-.72.12-1.33.35-1.85.24-.53.58-.97 1.01-1.32.45-.35.97-.61 1.58-.78A7.5 7.5 0 0 1 65.5.5c.86 0 1.66.07 2.42.23.75.14 1.38.35 1.87.63l-.9 2.41A7.56 7.56 0 0 0 65.51 3a2.6 2.6 0 0 0-1.56.4c-.35.27-.53.63-.53 1.07 0 .42.16.78.49 1.06.33.27.75.53 1.24.77.5.24 1.04.49 1.61.74.59.25 1.13.56 1.62.92.5.35.92.8 1.24 1.32.33.52.5 1.17.5 1.96a4.8 4.8 0 0 1-.4 2.03 3.72 3.72 0 0 1-1.09 1.41 4.5 4.5 0 0 1-1.7.84c-.66.18-1.39.27-2.18.27-1.05 0-1.98-.1-2.78-.29-.8-.2-1.38-.4-1.76-.59l.92-2.46a6.13 6.13 0 0 0 1.43.55 6.77 6.77 0 0 0 2.04.3c.85 0 1.5-.15 1.95-.43.46-.29.7-.73.7-1.32ZM72.05.8h8.71v2.56h-5.83V6.8h5.3v2.56h-5.3v3.59h5.94v2.56h-8.82V.8Zm10.97 0a15.36 15.36 0 0 1 2.14-.17L86.3.61l1-.02c1.3 0 2.42.18 3.34.55a5.68 5.68 0 0 1 3.51 3.88c.27.91.4 1.91.4 3 0 1-.13 1.96-.38 2.88a6.3 6.3 0 0 1-3.6 4.18c-.94.43-2.12.65-3.54.65a25.68 25.68 0 0 1-2.06-.08 27.68 27.68 0 0 1-1.95-.13V.8Zm4.52 2.35a21.76 21.76 0 0 0-1.64.09v9.85l.27.04c.14 0 .29 0 .44.02.16 0 .3 0 .44.02h.32a4.3 4.3 0 0 0 2.01-.42c.55-.3.98-.68 1.28-1.16a4.5 4.5 0 0 0 .68-1.63 9.83 9.83 0 0 0 .02-3.66 4.23 4.23 0 0 0-.63-1.57 3.4 3.4 0 0 0-1.22-1.14 3.96 3.96 0 0 0-1.97-.44Zm8.62 5c0-2.45.53-4.33 1.61-5.65 1.08-1.33 2.62-2 4.62-2 1.05 0 1.97.19 2.75.55.79.37 1.44.88 1.96 1.56.51.67.9 1.47 1.15 2.41.25.94.38 1.98.38 3.13 0 2.45-.55 4.34-1.64 5.67-1.08 1.32-2.61 1.97-4.6 1.97a6.53 6.53 0 0 1-2.77-.54 5.18 5.18 0 0 1-1.95-1.56 7 7 0 0 1-1.14-2.41c-.25-.94-.37-1.98-.37-3.13Zm3.02 0c0 .74.06 1.43.19 2.06.12.61.31 1.15.57 1.6a2.7 2.7 0 0 0 2.46 1.43c1.01 0 1.8-.4 2.37-1.2.56-.8.84-2.1.84-3.89 0-.71-.07-1.38-.2-2a5.36 5.36 0 0 0-.54-1.61 2.66 2.66 0 0 0-2.48-1.47 2.7 2.7 0 0 0-2.37 1.24c-.56.8-.84 2.09-.84 3.84Zm15.16-.32-1.16-2.3h-.1l.34 2.3v7.67h-2.73V.7h2.1l5.56 7.83 1.11 2.25h.1l-.33-2.25V.8h2.73v14.8h-2.1l-5.52-7.76Zm17.4 4.41h-4.52l-1.11 3.26h-2.88L128.52.7h2.12l5.3 14.8h-3.03l-1.18-3.26Zm-3.79-2.3h3.15l-1.09-3.28-.44-2.31h-.1l-.45 2.33-1.07 3.26Z" fill="#000"/></svg>