<svg width="461" height="350" fill="none" xmlns="http://www.w3.org/2000/svg"><path fill-rule="evenodd" clip-rule="evenodd" d="m165.7 70-.2.2a6.3 6.3 0 0 1-4.5 2.2l2.8-4.9c1.8-3.1.1-6.1-2.7-6.1-2.3 0-4 .9-5.8 3.9l-1.5 2.6-1.2 2.1-.2.2c-2.2 2.5-4.3 4.5-5.6 4.5-.7 0-1-.5-.3-1.6l6.4-11.2h2.4l1-1.4h-2.6l2.8-4.9h-3l-2.8 4.9H148l-1 1.4h2.8l-6 10.4c-1.3 2.2-.4 4.3 2 4.3 1.7 0 3.7-1.3 5.5-3.1 0 3.8 5.3 4.6 8.5.5h.7a9 9 0 0 0 6.1-2.9c0-.5-.5-.9-.9-1.1Zm-6.4.2a1.8 1.8 0 0 0-1.6 2.8v.1c-1.4 2.4-4.8 2-3.1-1.2l2.3-3.9 1.4-2.4c2.1-3.6 5-2.2 3.2.9l-2.2 3.7Zm48-.2-.1.2c-2.2 2.5-5 4.5-7 4.5-1.9 0-3-1.2-1.7-3.6l.3-.5c2 .8 5.7.4 7.9-3.5l.4-.7c1.6-2.8 0-4.8-2.4-4.8s-4.3 1.3-5.7 3.5l-2.9 5-.2.2c-2.2 2.5-4.3 4.5-5.6 4.5-.7 0-1-.5-.3-1.6l4.3-7.6c1.3-2.3.1-3.9-1.6-3.9-1.3 0-2.7.7-4.2 2.3l4.8-8.3h-3L182 70l-.2.2c-2.2 2.5-4.3 4.5-5.6 4.5-.7 0-1-.5-.3-1.6l6.4-11.2h2.4l.9-1.4h-2.5l2.8-4.9h-3l-2.8 4.9h-2.7l-1 1.4h2.8l-6 10.4c-1.3 2.2-.4 4.3 2 4.3 1.2 0 2.5-.6 3.8-1.6l-.8 1.3h3l4.5-7.9c4.6-5.8 6.6-5 5.4-2.8l-3.9 6.8c-1.3 2.2-.4 4.3 2 4.3 1.8 0 3.8-1.4 5.6-3.2.1 1.9 1.7 3.2 4.1 3.2 3.5 0 6.9-2.6 9.3-5.5 0-.6-.4-1-.8-1.2Zm-5.6-4.2c1.7-3 4.8-2.5 3 .6l-.4.7c-1.4 2.4-3.4 2.4-4.6 2l2-3.3Zm115 4.4.1-.2c.5.1 1 .6 1.1 1.1-2.2 2.6-5.2 5-8.3 5.4l-.9.1c-2.8 0-3.3-2.4-3.3-2.4l1.9-1s.4 1.1 1.4 1.1c2 0 2.3-2.4 2.6-5 .2-1.3.4-2.6.8-3.7l-1.2 1.5-3.1 4c-2.5 2.9-5.3 5.5-7.8 5.5-2 0-3-1.3-2.6-2.9-1.4 1.4-3.3 2.9-5 2.9-1.7 0-2.4-1.4-1.6-3.5-1 .6-2.4.9-3.3.9h-.7c-3.2 4.1-8.6 3.3-8.5-.6a11 11 0 0 1-7 3.2c-2.4 0-4-1.3-4-3.2-2.5 2.4-5 3.8-7.4 4.6l-2.3 3.9c-2.2 3.7-6.6 3.1-6.6.2 0-2.2 2.6-3.9 6.6-5.1l.7-1.2c-1 .6-2 1-2.9 1-1.7 0-2.6-1-2.6-2.4-1.6 1.4-3.3 2.4-4.8 2.4-2.4 0-3.3-2.1-2-4.3l3.2-5.5c.3-.6.2-1.2-.2-1.7l-.4-.5-5 6.4a9 9 0 0 1-6.1 2.9h-.7c-3.2 4.1-8.6 3.3-8.6-.5a18.6 18.6 0 0 1-7.2 4.5l-2.3 3.9c-2.2 3.7-6.6 3.1-6.6.2 0-2.2 2.6-3.9 6.6-5.1l.8-1.4c-1 .6-2 1-2.9 1-2.4 0-3.3-2.1-2-4.3l4.2-7.3c1.2-2.2 3.5-3.5 5.1-3.5 1.8 0 3.1 1.7 3.1 2.9h1.8L222.1 76c2.4-1 4.5-2.8 7-5.7l.2-.2 1.3-2.1 1.5-2.6c1.7-3 3.5-3.9 5.8-3.9 2.8 0 4.5 3 2.7 6.1l-2.8 4.9c1.5 0 3-.7 4.5-2.2l.2-.2c2-2.3 3.8-4.8 5.1-6.7l-.3-.3c-1-1.4-.9-3.1.8-4.6l1.6 1.7c-.6.5-.6 1.2-.2 1.7l1.7 2c1 1.2 1.4 2.3.4 4.1l-3 5.2c-.7 1.1-.4 1.6.3 1.6 1.3 0 3.4-2 5.6-4.5l.2-.2 3-5c1.1-2.2 3.4-3.5 5-3.5 1.9 0 3.2 1.7 3.2 2.9h1.8L260.9 76c2.5-1 4.6-2.8 7-5.7l.3-.2 2.9-5c1.3-2.2 3.2-3.5 5.6-3.5 2.5 0 4 2 2.4 4.8l-.4.7c-2.2 3.9-6 4.3-7.8 3.5l-.3.5c-1.3 2.4-.2 3.6 1.6 3.6 2 0 4.8-2 7-4.5l.2-.2 1.2-2.1 1.5-2.6c1.7-3 3.5-3.9 5.8-3.9 2.8 0 4.6 3 2.7 6.1l-2.8 4.9c1.5 0 3.1-.7 4.6-2.2l.2-.2 4.7-8.1h3l-5.8 10.2-.1.1c-.4.7-1 1.7-.3 2 .6.2 2.3-.9 4.6-3l5.3-9.3h3l-6.4 11.2c-.7 1.1-.4 1.6.3 1.6 1.3 0 3.4-2 5.6-4.5l.2-.2c2.6-3 5.1-6.5 6.4-8.4l.3-.4 2.2 1.2a22.9 22.9 0 0 0-1.8 7c-.2 1.6-.4 3-.8 4.1a22 22 0 0 0 3.6-3.3Zm-39.9-3.8c1.8-3.1-1.3-3.6-3-.6l-2 3.3c1.2.4 3.2.4 4.6-2l.4-.7Zm-62 15.1c0 .9 1 1 1.6-.1l1.4-2.5c-2.3.9-3 1.8-3 2.6Zm2.7-8.4c-.7 1.1-.4 1.6.3 1.6 1.2 0 3.1-1.4 5-4.3l2.2-4c1.5-2.7-1.7-3.4-3.3-.6l-4.2 7.3Zm18.7-2.9 2.3-3.7c1.8-3.1-1.1-4.5-3.2-.9l-1.4 2.4-2.3 3.9c-1.8 3.2 1.7 3.6 3 1.2V73l-.2-1c0-1 .8-1.8 1.8-1.8Zm17.3 11.3c0 .9 1 1 1.6-.1l1.4-2.5c-2.3.9-3 1.8-3 2.6Zm2.7-8.4c-.7 1.1-.4 1.6.3 1.6 1.2 0 3.1-1.4 5-4.3l2.3-4c1.5-2.7-1.7-3.4-3.4-.6l-4.2 7.3Zm29.8-2.9h.1l2.2-3.7c1.8-3.1-1-4.5-3.2-.9l-1.4 2.4-2.3 3.9c-1.7 3.2 1.7 3.6 3.1 1.2V73a1.8 1.8 0 0 1 1.5-2.8Zm-155.5-3.4h-29v2h29v-2Zm198.8 0h29v2h-29v-2Z" fill="#766458"/><path fill-rule="evenodd" clip-rule="evenodd" d="M163.5 0h7.8L170 44.9h-14.6l-2-18.5-2 18.5h-14.7l-1-44.9h7.6l.6 37.2h.8L149.7 0h7.6l5 37.2h.7l.5-37.2Zm32 37.2V45h-21V0h21v7.7H182v10.8h10.6v7.7h-10.6v10.9h13.3v.1Zm21.4 7.8v-7.8h-10.7V0h-7.7v45H217Zm16.3-16.6 7.7-1.8v13.6c0 2.6-2.2 4.7-4.7 4.7h-11.6a4.8 4.8 0 0 1-4.7-4.7V4.7c0-2.6 2.1-4.7 4.7-4.7h11.6c2.5 0 4.7 2.1 4.7 4.7v9.1l-7.7 1.8v-8h-5.6v29.5h5.6v-8.7Zm33.3-23.7c0-2.6-2.2-4.7-4.7-4.7h-11.6a4.7 4.7 0 0 0-4.7 4.7v35.4c0 2.5 2.1 4.7 4.7 4.7h11.6c2.5 0 4.7-2.1 4.7-4.7V4.7Zm-13.3 3h5.5v29.5h-5.5V7.7ZM291.5 0h7.7v44.9h-7.7V22.8l-3 11.4h-7.6l-3-11.4v22.1h-7.6V0h7.6l6.8 21.7L291.5 0ZM324 45V37.1h-13.4V26.2h10.6v-7.7h-10.6V7.7H324V0h-21v45h21Z" fill="#81B3D3"/><path fill-rule="evenodd" clip-rule="evenodd" d="M246.1 215.7c24 0 41.5-17.1 41.5-41.3 0-22.6-20-38.5-41.5-38.5-21.6 0-41.5 15.9-41.5 38.5a39.9 39.9 0 0 0 41.5 41.3Zm-.1-18.9c-11.6 0-21.2-9.4-21.2-22.3 0-10.3 9.7-19.8 21.2-19.8 11.6 0 21.2 9.5 21.2 19.8 0 12.9-9.6 22.3-21.2 22.3ZM31.5 152.6c4.8 0 9.3 2 13 5l7.7-15a51 51 0 0 0-23.5-6.2c-15 0-25.9 9.9-25.9 25.1 0 14.5 8 17.6 20.3 21.2l.7.2c4.3 1.2 11.1 3.1 11.1 8.3 0 5.2-4.8 7.5-9.4 7.5-6.7 0-12.5-3.4-17.4-7.7L0 206.5c7.6 5.3 17 8.5 26.4 8.5 7.5 0 15.3-2 21.3-7 5.9-5 7.7-12.7 7.7-20.1 0-12.1-8.1-17.3-18.6-20.4l-5-1.5c-3.3-1-8.6-2.7-8.6-7.1 0-4.2 4.7-6.3 8.3-6.3Zm60.4 14.7v-12.5l23.3.1v-16.5H72.4v74.8h42.8v-16.5H91.9v-12.9h22v-16.5h-22Zm37.7-28.9h27.7a37.7 37.7 0 0 1 38.1 37.4c0 21-17.3 37.4-38 37.4h-27.8v-74.8Zm19.6 58.3h4.4c11.6 0 21.6-6.4 21.6-20.9 0-13.4-8.9-20.9-21.4-20.9h-4.6v41.8ZM298 138.4h19.5l35.7 45.8h.3v-45.8H373v74.8h-19.6l-35.7-45.9h-.2v45.9H298v-74.8Zm105.2 74.8 5.2-13h27l4.8 13H461l-28.3-74.8h-21.3l-28.9 74.8h20.7Zm18.7-51.7h.2l8 23.8h-16.3l8-23.8ZM80.5 277.6l-.2.9-.5.8-.8.6-1.1.2c-.5 0-1-.1-1.4-.3-.4-.2-.8-.4-1-.7-.3-.2-.4-.5-.5-.8l-.2-.2-.2-1.3c0-.9.2-1.6.5-2.4a5 5 0 0 1 1.3-1.9l.9-.7.9-.5.4-.3a2 2 0 0 1 .4-.2l.3-.1 1.4 2h-.2l-.6.4a4 4 0 0 0-1 .5l-.6.8c-.2.3-.3.6-.3 1 .7 0 1.2.2 1.7.6.6.3.8.9.8 1.6Zm7.9 0-.2.9-.5.8-.8.6-1.1.2c-.5 0-1-.1-1.3-.3l-1.1-.7-.6-1-.2-1.3c0-.9.2-1.6.5-2.4a5 5 0 0 1 1.3-1.9l.8-.7.9-.5c.2 0 .3-.2.5-.3a2 2 0 0 1 .4-.2l.2-.1 1.4 2h-.2l-.6.4a4 4 0 0 0-1 .5l-.6.8c-.2.3-.3.6-.3 1 .7 0 1.2.2 1.7.6.5.3.8.9.8 1.6ZM364 296.1l.3-.3 1 .6.6.4c-3.2 3.6-6.8 7-10 7-1.8 0-3-1-3.3-2.5-1.9 1.5-3.8 2.5-5.3 2.5-2.3 0-3.5-1.4-3.3-3.3-2.2 1.9-4.4 3.3-6.4 3.3-3.1 0-4.2-2.6-2.6-5.4l5-8.6c1.6-2.8-1-3.8-6.8 3.5l-5.8 10.1h-3.8l1.4-2.4c-2 1.7-4 2.8-5.8 2.8-1.9 0-3-1-3.3-2.5-1.9 1.5-3.8 2.5-5.3 2.5-2.2 0-3.3-1.3-3.3-3-2 1.8-4.1 3-6 3-3.1 0-4.2-2.6-2.6-5.4l4-7c.5-.8.3-1.6-.2-2.2l-.5-.6-.5.6-5.5 7.2v.2l.2.2a26.5 26.5 0 0 1-12 8.8l-3 5c-2.7 4.7-8.3 3.9-8.3.3 0-2.9 3.2-4.9 8.3-6.5l1-1.7a7.7 7.7 0 0 1-4.1 1.2c-5.4 0-6-5.1-3.2-9.7l1.1-2a8.5 8.5 0 0 1-4.8-7.5c0-2.6 1.2-5.2 3.9-7.1l1.2 2.2a6.1 6.1 0 0 0-2.4 4.8c0 2.1 1.2 4.2 3.4 5.4l6-10.2c1.6-2.9 4.1-4.4 6.2-4.4 12 0 5.5 18.1-8 18.1a15 15 0 0 1-2.3-.2l-1.1 1.9c-2.3 3.9-1.8 6.5.8 6.5 3 0 5.3-2.6 7.3-6.1l.4-.7h3.7l-4.8 8.2c3-1.3 5.7-3.6 8.9-7.2l-.3-.3c2.2-2.6 4.2-5.4 5.8-7.7l.6-.8-.3-.4c-1.3-1.7-1.2-3.9 1-5.8l2 2.2c-.7.7-.7 1.5-.2 2.2l2 2.6c1.3 1.5 1.9 2.8.6 5.1l-3.8 6.6c-1 1.5-.4 2.1.4 2.1 1.7 0 4.4-2.5 7.1-5.7l.2-.2 3.7-6.3c1.6-2.8 4.5-4.4 6.5-4.4 2.5 0 4.2 2.2 4 3.8h2l-6.2 10.7c-.9 1.5-.4 2.1.4 2.1 1.7 0 4.5-2.5 7.2-5.7l.3-.3.4.2 6-10.5h3.9l-1.4 2.5c1.9-1.9 3.7-2.8 5.3-2.8 2.1 0 3.6 2.1 2 5l-5.5 9.6c-.9 1.5-.4 2.1.4 2.1 1.7 0 4.4-2.5 7.1-5.7l.3-.3.2.1 3.7-6.4c1.6-2.8 4.6-4.4 6.6-4.4 1.6 0 2.8.9 3.5 2l5.6-9.6h3.8l-12.8 22.2c-1 1.5-.4 2.1.4 2.1 1.7 0 4.4-2.5 7-5.7Zm-74.5-17.3c-1 0-2.3.9-3.4 2.8l-5.5 9.5h.8c10 0 14.2-12.3 8.1-12.3ZM276 310.4c0 1 1.3 1.2 2.1-.2l1.7-3c-2.9 1.1-3.8 2.2-3.8 3.2Zm35.8-8.7c1.5 0 3.8-1.7 6.1-5.3l3-5.2c2-3.4-2.2-4.3-4.2-.8l-5.3 9.2c-.9 1.5-.4 2.1.4 2.1Zm36.7 0c1.6 0 4-1.7 6.3-5.5l2.9-5c1.9-3.4-2.2-4.3-4.3-.8l-5.3 9.2c-.9 1.5-.4 2.1.4 2.1ZM109 275.5c7.5 0 7 9.6-.7 12.2 7.3 4.9 2 18.5-9.4 18.5-13.3 0-15.7-14.6-7.7-19.7l1.5 1.9c-3.7 2.4-4.4 7.8-1.8 11.4l1.3-1.8.2-.4 10.2-17.7c1.7-2.9 4.2-4.4 6.4-4.4ZM93.3 302c1.5.8 3.2 1.3 5.5 1.3 9.3 0 12.8-13.1 3.8-15l-1-.1-6.4 11.1c-.6 1-1.2 1.9-1.9 2.7Zm12.7-21.3-3 5.3c3.8-.1 6-.9 7.5-3.7 1.9-3.6-1.6-6.4-4.5-1.6Zm37.6 23.4c-2.5 0-3.7-1.9-3.1-4.1a16.2 16.2 0 0 1-9 4.3c-3.3 0-5.3-2-5.2-4.6-2.7 2.6-6.1 4.6-9.4 4.6-4.5 0-6.6-3.8-4.2-7.8l4-6.8c1.6-2.8 4-4.4 7.1-4.4 3.1 0 5 2.6 3 6.1l-.5.9c-2.9 4.9-7.5 5.4-10 4.4l-.3.7c-1.7 3-.3 4.5 2 4.5 2.7 0 6.2-2.5 9-5.7l.2-.3.2.1.1.1 3.8-6.5c1.6-2.8 4-4.4 7.2-4.4 3 0 5 2.6 3 6.1l-.5.9h-3.2l.5-.9c2.4-3.9-1.6-4.6-3.8-.8l-3.9 6.8c-1.7 3-.3 4.5 2 4.5 2.7 0 6.3-2.5 9-5.7l.3-.3.6.4 3.8-6.6c1.6-2.8 4.5-4.4 6.5-4.4 2.5 0 4.1 2.2 4 3.8h2.2l-6.1 10.7c-1 1.5-.4 2.1.4 2.1 1.7 0 4.4-2.5 7.1-5.7l.3-.3.2.1.1.1 6-10.4h3.9l-7.5 12.9c-.5.9-1.4 2.2-.5 2.6.7.3 3-1.2 5.8-3.8l6.8-11.8h3.8l-8.1 14.2c-1 1.5-.4 2.1.4 2.1 1.7 0 4.4-2.5 7-5.7l.2-.2-.1-.1c2.8-3.3 5.6-7.2 7.4-9.7l1-1.4 2.8 1.5c-1.5 3-2 6.2-2.3 9-.3 2-.5 3.6-1 5 1.5-1 3.2-2.5 4.6-4.1l.3-.3h.1l3.7-6.3c1.6-2.8 4-4.4 7.2-4.4 3 0 5 2.6 3 6.1l-.5.9c-3 4.9-7.6 5.4-10 4.4l-.4.7c-1.7 3-.3 4.5 2 4.5 2.7 0 6.3-2.5 9-5.7l.3-.3c.5.2 1 .8 1.4 1.3-3.1 3.6-7.5 7-11.8 7-3 0-5-1.8-5-4.3a16.2 16.2 0 0 1-8 4.2h-.1l-1.1.1c-3.5 0-4.2-3.1-4.2-3.1l2.4-1.2s.5 1.4 1.8 1.4c2.4 0 2.8-3.1 3.3-6.4.3-1.6.5-3.3 1-4.6l-1.4 1.8a80 80 0 0 1-3.8 5.2c-3.2 3.6-6.8 7-10 7-2.4 0-3.6-1.6-3.2-3.6-1.8 1.7-4 3.6-6.2 3.6-1.9 0-2.8-1.4-2.4-3.4-2.2 2-4.4 3.4-6.4 3.4s-3.1-1-3.3-2.5c-2 1.5-3.8 2.5-5.3 2.5Zm58.9-12.9c2.3-3.9-1.6-4.6-3.9-.8l-2.4 4.2c1.4.5 4 .6 5.8-2.5l.5-.9Zm-53-.7-5.2 9.2c-1 1.5-.4 2 .4 2.1 1.5 0 3.8-1.7 6-5.3l3.1-5.2c2-3.4-2.2-4.3-4.2-.8Zm-25.7.7c2.3-3.9-1.6-4.6-3.8-.8l-2.4 4.2c1.4.5 3.9.6 5.7-2.5l.5-.9ZM249 304.1c4.3 0 8.6-3.4 11.7-7-.3-.5-.9-1.1-1.4-1.3l-.3.3c-2.7 3.2-6.2 5.7-8.9 5.7-2.3 0-3.7-1.5-2-4.5l.4-.7c2.4 1 7 .5 10-4.4l.4-.9c2-3.5.1-6.1-3-6.1-3 0-5.5 1.6-7 4.4l-3.8 6.3-.1-.1-.3.3c-2.7 3.2-5.4 5.7-7.1 5.7-.8 0-1.3-.6-.4-2.1l5.5-9.6c1.6-2.9 0-5-2-5-1.6 0-3.4.9-5.3 2.9l6-10.5h-3.8L226.8 296l-.2-.1-.2-.2-.3.3c-2.7 3.2-5.4 5.7-7 5.7-.9 0-1.4-.6-.5-2.1l8.1-14.2h3.1l1.2-1.8h-3.2l3.7-6.2h-3.9l-3.6 6.2h-3.4l-1 1.8h3.4l-7.6 13.2c-1.6 2.8-.5 5.4 2.6 5.4 2 0 4-1.2 6-3l-1.5 2.6h3.8l5.9-10c5.8-7.3 8.4-6.4 6.8-3.6l-5 8.6c-1.5 2.8-.4 5.4 2.7 5.4 2.3 0 4.9-1.8 7.3-4.2 0 2.5 1.9 4.3 5 4.3Zm3.1-13.7c2.2-3.8 6.1-3.1 3.8.8l-.5.9c-1.8 3.1-4.3 3-5.7 2.5l2.4-4.2Zm-14.8 41.4-.3.3c-2.7 3.2-5.4 5.7-7.2 5.7-.8 0-1.3-.6-.4-2.1l5.6-9.6c1.6-2.9 0-5-2-5-1.6 0-3.5.9-5.4 2.8l1.4-2.5h-3.8l-6 10.6-.3-.1-.3-.2-.3.3a7.8 7.8 0 0 1-5.7 2.8l3.6-6.2c2.3-4 .2-7.7-3.4-7.7-3 0-5.2 1.2-7.4 5l-2 3.2-1.5 2.8-.2-.1-.1-.1-.3.3a25.2 25.2 0 0 1-8.9 7.2l10.5-17.8H199l-6.7 11.7c-2.9 2.7-5.2 4.2-5.9 3.9-.9-.4 0-1.7.5-2.6l7.4-12.9h-3.8l-6.1 10.5-.2-.1-.1-.1-.3.3c-2.7 3.2-5.4 5.7-7.1 5.7-.8 0-1.3-.6-.4-2.1l5.5-9.6c1.6-2.9 0-5-2-5-1.6 0-3.4.9-5.3 2.8l1.4-2.5H172l-6.2 10.5-.4-.2-.3.3c-2.7 3.2-5.4 5.7-7 5.7-.9 0-1.4-.6-.5-2.1l6.1-10.7h-2.2c.1-1.6-1.5-3.8-4-3.8-2 0-4.9 1.6-6.5 4.4l-4 6.8-.7-.5-.3.3c-2.7 3.2-6.1 5.7-9.9 5.7-2.6 0-4.2-2.6-1.9-6.5l1.1-1.9 2.2.2c4 0 8.7-2.1 11.7-7.3a10 10 0 0 0 1.5-5.1c0-3.4-2.2-5.7-5-5.7-2.1 0-4.6 1.5-6.3 4.4l-6 10.2a6.2 6.2 0 0 1-3.4-5.4c0-1.8.8-3.5 2.4-4.8l-1.2-2.2a8.6 8.6 0 0 0-3.9 7.1c0 3 1.7 5.9 4.8 7.5l-1 2c-2.8 4.6-1.2 9.7 4.2 9.7 4.3 0 7.5-1.9 10-4.4-.7 2.4.5 4.4 3.2 4.4 1.5 0 3.4-1 5.3-2.5.2 1.5 1.4 2.5 3.3 2.5 1.8 0 3.8-1.1 5.7-2.8l-1.4 2.4h3.8l5.9-10.1c5.8-7.3 8.4-6.3 6.7-3.5l-5 8.6c-1.5 2.8-.4 5.4 2.7 5.4 2 0 4.3-1.4 6.5-3.4-.5 2.1.5 3.4 2.4 3.4 1.8 0 4-1.5 5.6-3.1l-2 3.6c-5.2 1.5-8.5 3.6-8.5 6.5 0 3.6 5.6 4.4 8.3-.3l3-5c3.1-1 6.2-3 9.6-6.2-.5 5.3 6.5 6.5 10.8 1.1h.8c1.4 0 3.3-.5 5-1.5l-2.5 4.4h3.8l5.8-10.1c5.8-7.3 8.5-6.3 6.8-3.5l-5 8.6c-1.6 2.8-.5 5.4 2.6 5.4 3.2 0 6.8-3.4 10-7-.1-.3-.8-.9-1.3-1.1Zm-94.7-14.2c1-1.9 2.4-2.8 3.4-2.8 1.4 0 2 .9 2 2.3 0 3.5-4.2 9.9-10.2 9.9h-.8l5.6-9.4Zm13.4 14.8c-2.3 3.6-4.6 5.3-6.1 5.3-.8 0-1.3-.6-.4-2.1l5.3-9.2c2-3.5 6.1-2.6 4.2.8l-3 5.2Zm28.9 13.8c-.8 1.4-2.1 1.2-2.1.2s.9-2.1 3.8-3.2l-1.7 3Zm25.7-14.2h-.2c-1.2 0-2.2 1-2.2 2.3 0 .5 0 .9.4 1.3v.1c-1.8 3.1-6.1 2.5-4-1.5l3-5 1.8-3.1c2.7-4.5 6.3-2.7 4 1.2l-2.8 4.7Zm113.5-.2c.5.1 1.2.7 1.4 1.3a20.3 20.3 0 0 1-10.6 7.1l-1.2.1c-3.5 0-4.2-3.1-4.2-3.1l2.4-1.2s.5 1.4 1.8 1.4c2.4 0 2.9-3.1 3.3-6.4.3-1.6.5-3.3 1-4.6l-1.3 1.8a79.6 79.6 0 0 1-4 5.1c-3.3 3.6-6.9 7-10 7-3.1 0-3.7-1.7-3.7-4.9v-3l-4.3 7.5h-3.9l2.2-3.7c-2.8 2.3-5.8 4-8.9 4-3 0-5-1.9-5-4.4-2.6 2.5-5.2 4.4-7.6 4.4-2.4 0-3.6-1.6-3.2-3.6-1.8 1.7-4.1 3.6-6.2 3.6-1.7 0-2.6-1-2.6-2.5a13.1 13.1 0 0 1-5.6 2.4l-1.2.1c-3.1 0-4-2.4-4.2-3a90 90 0 0 1-2.2 2.7l-.3-.2c-.4-.4-.9-.7-1.1-1.1 3.5-4 12.2-15.6 13.8-17.8l2.9 1.5c-1.5 3-2 6.2-2.4 9-.3 2-.5 3.6-1 5l1-.8 1.4-1.2 7.5-12.7h3.8l-7.4 12.9c-.6.9-1.4 2.2-.5 2.6.7.3 2.9-1.2 5.8-3.8l6.7-11.8h3.8l-8.1 14.2c-1 1.5-.4 2.1.4 2.1 1.7 0 4.4-2.5 7.1-5.7l.3-.3.2.1 3.7-6.4c1.6-2.8 4-4.4 7.1-4.4 3.2 0 5 2.6 3 6.1l-.4.9h-3.2l.5-.9c2.4-3.9-1.6-4.6-3.8-.8l-3.9 6.8c-1.7 3-.3 4.5 2 4.5 2.7 0 6.2-2.5 9-5.7l.3-.3.7.5 10.8-18.8h3.8l-5.4 9.4c3.9-3.6 9.6-1.6 6.1 4.5l-1 1.8c-1.8 3.1-4.6 4.8-7.3 4.5v1.6c0 1.8.8 2.6 1.6 2.6 1.7 0 4.4-2.5 7.1-5.7l.3-.3c2.8-3.3 5.7-7.2 7.5-9.7.3-.6.7-1 1-1.4l2.7 1.5c-1.4 3-1.9 6.2-2.3 9-.3 2-.5 3.6-1 5 1.5-1 3.2-2.5 4.7-4.1l.3-.3Zm-75.4 5.2 2.2-1.1s.5 1.4 1.8 1.4c2.4 0 2.9-3.1 3.3-6.4.3-1.6.5-3.3 1-4.6-1 1.4-5.3 7-8.3 10.7Zm52.6-8.8-1.1 1.9c.9 2.5 4.2 1.1 5.3-.9l1.8-3.1c1.4-2.3-1.6-4-6 2.1Zm24 7.5c-1.1 0-2.1 1-2.1 2.2 0 1.2.9 2.2 2.2 2.2 1.2 0 2.2-.9 2.2-2.2 0-1.2-1-2.2-2.2-2.2Zm4-1.5h-3.7l11.9-20.7h3.8l-12 20.7Zm25.3 1.4-.2.9c0 .7.3 1.3.8 1.6.5.4 1 .6 1.7.6 0 .4-.1.7-.3 1l-.7.8a4 4 0 0 1-1 .5 3.7 3.7 0 0 1-.7.4l1.4 2 .2-.1a2 2 0 0 0 .4-.2l.5-.3.9-.5.8-.7a5 5 0 0 0 1.3-1.9c.3-.8.5-1.5.5-2.4a5 5 0 0 0-.2-1.3l-.1-.2-.5-.8-1.1-.7c-.4-.2-.8-.3-1.3-.3l-1.1.2-.8.6-.5.8Zm-7.9 0-.2.9c0 .7.2 1.3.8 1.6.5.4 1 .6 1.7.6 0 .4 0 .7-.3 1l-.7.8-.9.5a3 3 0 0 1-.8.4l1.4 2 .2-.1a2 2 0 0 0 .5-.2l.4-.3 1-.5.7-.7a5 5 0 0 0 1.3-1.9c.3-.8.5-1.5.5-2.4 0-.5 0-.9-.2-1.3l-.6-1-1-.7c-.5-.2-.9-.3-1.4-.3l-1 .2-.9.6-.5.8Z" fill="#fff"/></svg>